<mxfile host="app.diagrams.net" modified="2022-03-25T07:52:35.092Z" agent="5.0 (X11; Linux x86_64) AppleWebKit/537.36 (KHTML, like Gecko) Chrome/99.0.4844.51 Safari/537.36" etag="O9-_lR0wAQ1HaFp-L7sz" version="17.2.2" type="github">
  <diagram id="kO__wrCLHh8eWBU0QF4_" name="Page-1">
    <mxGraphModel dx="3796" dy="2719" grid="1" gridSize="10" guides="1" tooltips="1" connect="1" arrows="1" fold="1" page="1" pageScale="1" pageWidth="850" pageHeight="1100" math="0" shadow="0">
      <root>
        <mxCell id="0" />
        <mxCell id="1" parent="0" />
        <mxCell id="ezrv8BM9sVap5lZGodFx-9" value="" style="rounded=0;whiteSpace=wrap;html=1;fillColor=none;" parent="1" vertex="1">
          <mxGeometry x="-840" y="-850" width="920" height="600" as="geometry" />
        </mxCell>
        <mxCell id="ezrv8BM9sVap5lZGodFx-1" value="&lt;b&gt;Web service&lt;/b&gt;&lt;br&gt;&lt;br&gt;strona" style="rounded=0;whiteSpace=wrap;html=1;" parent="1" vertex="1">
          <mxGeometry x="-440" y="-830" width="120" height="60" as="geometry" />
        </mxCell>
        <mxCell id="ezrv8BM9sVap5lZGodFx-2" value="&lt;b&gt;Travel&amp;nbsp;service&lt;/b&gt;&lt;br&gt;&lt;p&gt;pojedynczy przelot/droga&lt;/p&gt;" style="rounded=0;whiteSpace=wrap;html=1;" parent="1" vertex="1">
          <mxGeometry x="-550" y="-330" width="140" height="80" as="geometry" />
        </mxCell>
        <mxCell id="ezrv8BM9sVap5lZGodFx-3" value="&lt;b&gt;Offer service&lt;/b&gt;&lt;br&gt;&lt;br&gt;Konfiguracja wycieczki" style="rounded=0;whiteSpace=wrap;html=1;" parent="1" vertex="1">
          <mxGeometry x="-720" y="-490" width="140" height="80" as="geometry" />
        </mxCell>
        <mxCell id="53pI2VVZi_R9F05QZi0w-8" style="edgeStyle=orthogonalEdgeStyle;rounded=0;orthogonalLoop=1;jettySize=auto;html=1;entryX=0;entryY=0.5;entryDx=0;entryDy=0;" parent="1" source="ezrv8BM9sVap5lZGodFx-4" target="ezrv8BM9sVap5lZGodFx-7" edge="1">
          <mxGeometry relative="1" as="geometry">
            <Array as="points">
              <mxPoint x="-250" y="-620" />
              <mxPoint x="-250" y="-730" />
            </Array>
          </mxGeometry>
        </mxCell>
        <mxCell id="53pI2VVZi_R9F05QZi0w-9" value="GetOffers()" style="edgeLabel;html=1;align=center;verticalAlign=middle;resizable=0;points=[];" parent="53pI2VVZi_R9F05QZi0w-8" vertex="1" connectable="0">
          <mxGeometry x="-0.8178" relative="1" as="geometry">
            <mxPoint x="16" as="offset" />
          </mxGeometry>
        </mxCell>
        <mxCell id="53pI2VVZi_R9F05QZi0w-23" style="edgeStyle=orthogonalEdgeStyle;rounded=0;orthogonalLoop=1;jettySize=auto;html=1;" parent="1" source="ezrv8BM9sVap5lZGodFx-4" target="ezrv8BM9sVap5lZGodFx-7" edge="1">
          <mxGeometry relative="1" as="geometry" />
        </mxCell>
        <mxCell id="53pI2VVZi_R9F05QZi0w-24" value="&lt;span style=&quot;color: rgba(0 , 0 , 0 , 0) ; font-family: monospace ; font-size: 0px ; background-color: rgb(248 , 249 , 250)&quot;&gt;%3CmxGraphModel%3E%3Croot%3E%3CmxCell%20id%3D%220%22%2F%3E%3CmxCell%20id%3D%221%22%20parent%3D%220%22%2F%3E%3CmxCell%20id%3D%222%22%20value%3D%22CreateOrder%2FReservation()%22%20style%3D%22edgeLabel%3Bhtml%3D1%3Balign%3Dcenter%3BverticalAlign%3Dmiddle%3Bresizable%3D0%3Bpoints%3D%5B%5D%3B%22%20vertex%3D%221%22%20connectable%3D%220%22%20parent%3D%221%22%3E%3CmxGeometry%20x%3D%22210%22%20y%3D%22250%22%20as%3D%22geometry%22%2F%3E%3C%2FmxCell%3E%3C%2Froot%3E%3C%2FmxGraphModel%3E&lt;/span&gt;" style="edgeLabel;html=1;align=center;verticalAlign=middle;resizable=0;points=[];" parent="53pI2VVZi_R9F05QZi0w-23" vertex="1" connectable="0">
          <mxGeometry x="-0.8733" y="1" relative="1" as="geometry">
            <mxPoint as="offset" />
          </mxGeometry>
        </mxCell>
        <mxCell id="53pI2VVZi_R9F05QZi0w-25" value="ConfirmOrder/Reservation()" style="edgeLabel;html=1;align=center;verticalAlign=middle;resizable=0;points=[];" parent="53pI2VVZi_R9F05QZi0w-23" vertex="1" connectable="0">
          <mxGeometry x="-0.8493" relative="1" as="geometry">
            <mxPoint x="47" as="offset" />
          </mxGeometry>
        </mxCell>
        <mxCell id="53pI2VVZi_R9F05QZi0w-28" style="edgeStyle=orthogonalEdgeStyle;rounded=0;orthogonalLoop=1;jettySize=auto;html=1;" parent="1" source="ezrv8BM9sVap5lZGodFx-4" target="ezrv8BM9sVap5lZGodFx-5" edge="1">
          <mxGeometry relative="1" as="geometry">
            <Array as="points">
              <mxPoint x="-110" y="-570" />
            </Array>
          </mxGeometry>
        </mxCell>
        <mxCell id="53pI2VVZi_R9F05QZi0w-29" value="&lt;span style=&quot;color: rgba(0 , 0 , 0 , 0) ; font-family: monospace ; font-size: 0px ; background-color: rgb(248 , 249 , 250)&quot;&gt;%3CmxGraphModel%3E%3Croot%3E%3CmxCell%20id%3D%220%22%2F%3E%3CmxCell%20id%3D%221%22%20parent%3D%220%22%2F%3E%3CmxCell%20id%3D%222%22%20value%3D%22ApprovePayment()%22%20style%3D%22edgeLabel%3Bhtml%3D1%3Balign%3Dcenter%3BverticalAlign%3Dmiddle%3Bresizable%3D0%3Bpoints%3D%5B%5D%3B%22%20vertex%3D%221%22%20connectable%3D%220%22%20parent%3D%221%22%3E%3CmxGeometry%20x%3D%22210.2380952380954%22%20y%3D%22220%22%20as%3D%22geometry%22%2F%3E%3C%2FmxCell%3E%3C%2Froot%3E%3C%2FmxGraphModel%3E&lt;/span&gt;" style="edgeLabel;html=1;align=center;verticalAlign=middle;resizable=0;points=[];" parent="53pI2VVZi_R9F05QZi0w-28" vertex="1" connectable="0">
          <mxGeometry x="-0.6693" y="1" relative="1" as="geometry">
            <mxPoint as="offset" />
          </mxGeometry>
        </mxCell>
        <mxCell id="53pI2VVZi_R9F05QZi0w-30" value="AuthorizePayment()" style="edgeLabel;html=1;align=center;verticalAlign=middle;resizable=0;points=[];" parent="53pI2VVZi_R9F05QZi0w-28" vertex="1" connectable="0">
          <mxGeometry x="-0.5893" y="1" relative="1" as="geometry">
            <mxPoint as="offset" />
          </mxGeometry>
        </mxCell>
        <mxCell id="ezrv8BM9sVap5lZGodFx-4" value="&lt;b&gt;Broker&lt;/b&gt;" style="rounded=0;whiteSpace=wrap;html=1;" parent="1" vertex="1">
          <mxGeometry x="-440" y="-630" width="120" height="60" as="geometry" />
        </mxCell>
        <mxCell id="ezrv8BM9sVap5lZGodFx-5" value="&lt;b&gt;Payment service&lt;/b&gt;&lt;br&gt;&lt;br&gt;zatwierdzanie przelewu/karty" style="rounded=0;whiteSpace=wrap;html=1;" parent="1" vertex="1">
          <mxGeometry x="-180" y="-530" width="140" height="80" as="geometry" />
        </mxCell>
        <mxCell id="53pI2VVZi_R9F05QZi0w-4" style="edgeStyle=orthogonalEdgeStyle;rounded=0;orthogonalLoop=1;jettySize=auto;html=1;exitX=1;exitY=0.5;exitDx=0;exitDy=0;" parent="1" source="ezrv8BM9sVap5lZGodFx-3" target="ezrv8BM9sVap5lZGodFx-4" edge="1">
          <mxGeometry relative="1" as="geometry" />
        </mxCell>
        <mxCell id="53pI2VVZi_R9F05QZi0w-7" value="GetOffers()" style="edgeLabel;html=1;align=center;verticalAlign=middle;resizable=0;points=[];" parent="53pI2VVZi_R9F05QZi0w-4" vertex="1" connectable="0">
          <mxGeometry x="-0.2257" y="1" relative="1" as="geometry">
            <mxPoint as="offset" />
          </mxGeometry>
        </mxCell>
        <mxCell id="53pI2VVZi_R9F05QZi0w-12" style="edgeStyle=orthogonalEdgeStyle;rounded=0;orthogonalLoop=1;jettySize=auto;html=1;" parent="1" source="ezrv8BM9sVap5lZGodFx-6" target="ezrv8BM9sVap5lZGodFx-3" edge="1">
          <mxGeometry relative="1" as="geometry">
            <Array as="points">
              <mxPoint x="-650" y="-530" />
              <mxPoint x="-650" y="-530" />
            </Array>
          </mxGeometry>
        </mxCell>
        <mxCell id="53pI2VVZi_R9F05QZi0w-13" value="CheckOfferAvability()" style="edgeLabel;html=1;align=center;verticalAlign=middle;resizable=0;points=[];" parent="53pI2VVZi_R9F05QZi0w-12" vertex="1" connectable="0">
          <mxGeometry x="-0.7005" relative="1" as="geometry">
            <mxPoint as="offset" />
          </mxGeometry>
        </mxCell>
        <mxCell id="53pI2VVZi_R9F05QZi0w-20" style="edgeStyle=orthogonalEdgeStyle;rounded=0;orthogonalLoop=1;jettySize=auto;html=1;" parent="1" edge="1">
          <mxGeometry relative="1" as="geometry">
            <mxPoint x="-579" y="-600" as="sourcePoint" />
            <mxPoint x="-439" y="-600" as="targetPoint" />
            <Array as="points">
              <mxPoint x="-549" y="-600" />
              <mxPoint x="-549" y="-600" />
            </Array>
          </mxGeometry>
        </mxCell>
        <mxCell id="53pI2VVZi_R9F05QZi0w-22" value="ConfirmOrder/Reservation()" style="edgeLabel;html=1;align=center;verticalAlign=middle;resizable=0;points=[];" parent="53pI2VVZi_R9F05QZi0w-20" vertex="1" connectable="0">
          <mxGeometry x="-0.2016" relative="1" as="geometry">
            <mxPoint x="14" as="offset" />
          </mxGeometry>
        </mxCell>
        <mxCell id="53pI2VVZi_R9F05QZi0w-26" style="edgeStyle=orthogonalEdgeStyle;rounded=0;orthogonalLoop=1;jettySize=auto;html=1;" parent="1" source="ezrv8BM9sVap5lZGodFx-6" target="ezrv8BM9sVap5lZGodFx-4" edge="1">
          <mxGeometry relative="1" as="geometry">
            <Array as="points">
              <mxPoint x="-530" y="-630" />
              <mxPoint x="-530" y="-630" />
            </Array>
          </mxGeometry>
        </mxCell>
        <mxCell id="53pI2VVZi_R9F05QZi0w-27" value="AuthorizePayment()" style="edgeLabel;html=1;align=center;verticalAlign=middle;resizable=0;points=[];" parent="53pI2VVZi_R9F05QZi0w-26" vertex="1" connectable="0">
          <mxGeometry x="-0.3551" relative="1" as="geometry">
            <mxPoint x="25" as="offset" />
          </mxGeometry>
        </mxCell>
        <mxCell id="ezrv8BM9sVap5lZGodFx-6" value="&lt;b&gt;Order service&lt;/b&gt;&lt;br&gt;&lt;br&gt;Kupno/rezerwacja oferty" style="rounded=0;whiteSpace=wrap;html=1;" parent="1" vertex="1">
          <mxGeometry x="-720" y="-640" width="140" height="80" as="geometry" />
        </mxCell>
        <mxCell id="ezrv8BM9sVap5lZGodFx-7" value="&lt;b&gt;TourOperator service&lt;/b&gt;&lt;br&gt;&lt;p&gt;zewnętrzny dostawca&amp;nbsp;&lt;/p&gt;" style="rounded=0;whiteSpace=wrap;html=1;" parent="1" vertex="1">
          <mxGeometry x="-180" y="-770" width="140" height="80" as="geometry" />
        </mxCell>
        <mxCell id="ezrv8BM9sVap5lZGodFx-11" style="edgeStyle=orthogonalEdgeStyle;rounded=0;orthogonalLoop=1;jettySize=auto;html=1;" parent="1" source="ezrv8BM9sVap5lZGodFx-10" target="ezrv8BM9sVap5lZGodFx-1" edge="1">
          <mxGeometry relative="1" as="geometry" />
        </mxCell>
        <mxCell id="ezrv8BM9sVap5lZGodFx-10" value="Scrapper" style="rounded=0;whiteSpace=wrap;html=1;fillColor=none;" parent="1" vertex="1">
          <mxGeometry x="-440" y="-960" width="120" height="60" as="geometry" />
        </mxCell>
        <mxCell id="ezrv8BM9sVap5lZGodFx-12" value="&lt;b&gt;Hotel service&lt;/b&gt;&lt;br&gt;&lt;p&gt;dostępność hoteli&lt;/p&gt;" style="rounded=0;whiteSpace=wrap;html=1;" parent="1" vertex="1">
          <mxGeometry x="-350" y="-330" width="140" height="80" as="geometry" />
        </mxCell>
        <mxCell id="53pI2VVZi_R9F05QZi0w-1" value="&lt;b&gt;Orchestrator&lt;/b&gt;" style="rounded=0;whiteSpace=wrap;html=1;" parent="1" vertex="1">
          <mxGeometry x="-440" y="-740" width="120" height="60" as="geometry" />
        </mxCell>
        <mxCell id="53pI2VVZi_R9F05QZi0w-10" style="edgeStyle=orthogonalEdgeStyle;rounded=0;orthogonalLoop=1;jettySize=auto;html=1;" parent="1" source="53pI2VVZi_R9F05QZi0w-3" target="ezrv8BM9sVap5lZGodFx-6" edge="1">
          <mxGeometry relative="1" as="geometry">
            <Array as="points">
              <mxPoint x="-720" y="-700" />
              <mxPoint x="-720" y="-700" />
            </Array>
          </mxGeometry>
        </mxCell>
        <mxCell id="53pI2VVZi_R9F05QZi0w-11" value="ReserveOffer()" style="edgeLabel;html=1;align=center;verticalAlign=middle;resizable=0;points=[];" parent="53pI2VVZi_R9F05QZi0w-10" vertex="1" connectable="0">
          <mxGeometry x="-0.7134" y="-1" relative="1" as="geometry">
            <mxPoint as="offset" />
          </mxGeometry>
        </mxCell>
        <mxCell id="53pI2VVZi_R9F05QZi0w-14" style="edgeStyle=orthogonalEdgeStyle;rounded=0;orthogonalLoop=1;jettySize=auto;html=1;" parent="1" source="53pI2VVZi_R9F05QZi0w-3" target="ezrv8BM9sVap5lZGodFx-6" edge="1">
          <mxGeometry relative="1" as="geometry">
            <Array as="points">
              <mxPoint x="-580" y="-670" />
              <mxPoint x="-580" y="-670" />
            </Array>
          </mxGeometry>
        </mxCell>
        <mxCell id="53pI2VVZi_R9F05QZi0w-15" value="createOrder()" style="edgeLabel;html=1;align=center;verticalAlign=middle;resizable=0;points=[];" parent="53pI2VVZi_R9F05QZi0w-14" vertex="1" connectable="0">
          <mxGeometry x="-0.7441" y="1" relative="1" as="geometry">
            <mxPoint as="offset" />
          </mxGeometry>
        </mxCell>
        <mxCell id="53pI2VVZi_R9F05QZi0w-16" style="edgeStyle=orthogonalEdgeStyle;rounded=0;orthogonalLoop=1;jettySize=auto;html=1;" parent="1" source="53pI2VVZi_R9F05QZi0w-3" target="ezrv8BM9sVap5lZGodFx-3" edge="1">
          <mxGeometry relative="1" as="geometry">
            <Array as="points">
              <mxPoint x="-800" y="-770.0000000000002" />
              <mxPoint x="-800" y="-450" />
            </Array>
          </mxGeometry>
        </mxCell>
        <mxCell id="53pI2VVZi_R9F05QZi0w-17" value="GetOfferList()" style="edgeLabel;html=1;align=center;verticalAlign=middle;resizable=0;points=[];" parent="53pI2VVZi_R9F05QZi0w-16" vertex="1" connectable="0">
          <mxGeometry x="-0.5727" y="-2" relative="1" as="geometry">
            <mxPoint as="offset" />
          </mxGeometry>
        </mxCell>
        <mxCell id="53pI2VVZi_R9F05QZi0w-3" value="&lt;b&gt;Customer service&lt;/b&gt;&lt;br&gt;&lt;br&gt;Zarządzanie danymi klienta/historia" style="rounded=0;whiteSpace=wrap;html=1;" parent="1" vertex="1">
          <mxGeometry x="-720" y="-810" width="140" height="80" as="geometry" />
        </mxCell>
        <mxCell id="53pI2VVZi_R9F05QZi0w-18" value="&lt;b&gt;Trip service&lt;/b&gt;&lt;br&gt;&lt;p&gt;wyczeczka bez szczegółowej konfiguracji&lt;/p&gt;" style="rounded=0;whiteSpace=wrap;html=1;" parent="1" vertex="1">
          <mxGeometry x="-720" y="-380" width="140" height="80" as="geometry" />
        </mxCell>
      </root>
    </mxGraphModel>
  </diagram>
</mxfile>
